<svg xmlns="http://www.w3.org/2000/svg" viewBox="0 0 256 256" width="256" height="256">
  <defs>
    <linearGradient id="shieldFill" x1="0" y1="0" x2="1" y2="1">
      <stop offset="0" stop-color="#5BE7C4" />
      <stop offset="0.55" stop-color="#3FBFE0" />
      <stop offset="1" stop-color="#3B82F6" />
    </linearGradient>
    <radialGradient id="gleam" cx="0.28" cy="0.16" r="0.8">
      <stop offset="0" stop-color="#FFFFFF" stop-opacity="0.42" />
      <stop offset="1" stop-color="#FFFFFF" stop-opacity="0" />
    </radialGradient>
    <clipPath id="clipShield">
      <path d="M 128 26 Q 133.2 26 138 27.9 L 209.6 53.2 Q 216 55.5 216 62.3 L 216 146 Q 216 192 172.4 215.6 L 134 234.4 Q 128 237.3 122 234.4 L 83.6 215.6 Q 40 192 40 146 L 40 62.3 Q 40 55.5 46.4 53.2 L 118 27.9 Q 122.8 26 128 26 Z" />
    </clipPath>
  </defs>

  <path
    d="M 128 26 Q 133.2 26 138 27.9 L 209.6 53.2 Q 216 55.5 216 62.3 L 216 146 Q 216 192 172.4 215.6 L 134 234.4 Q 128 237.3 122 234.4 L 83.6 215.6 Q 40 192 40 146 L 40 62.3 Q 40 55.5 46.4 53.2 L 118 27.9 Q 122.8 26 128 26 Z"
    fill="url(#shieldFill)"
  />
  <g clip-path="url(#clipShield)">
    <rect width="256" height="256" fill="url(#gleam)" />
  </g>

  <path d="M 68 130 Q 128 72 188 130 Q 128 188 68 130 Z" fill="#0C1A2B" />
  <circle cx="128" cy="130" r="26" fill="#F4FBFF" />
  <circle cx="128" cy="130" r="11" fill="#0C1A2B" />
  <circle cx="123" cy="125" r="3.4" fill="#FFFFFF" opacity="0.85" />
</svg>
